<?xml version="1.0" encoding="utf-8" ?>
<svg xmlns="http://www.w3.org/2000/svg" xmlns:xlink="http://www.w3.org/1999/xlink" width="420" height="80">
	<path fill="#171717" transform="matrix(0.63 0 0 0.63 2 5)" d="M59 0L63 0L10 72L0 72L59 0ZM49 17L63 0L63 72L49 72L49 17ZM128 0L132 0L79 72L69 72L128 0ZM118 17L132 0L132 72L118 72L118 17ZM0 74L60 74L60 83L0 83L0 74ZM75 74L132 74L145 72L145 83L75 83L75 74ZM49 85L63 85L63 98Q63 105 76 108L76 110L35 110L35 108Q49 105 49 98L49 85ZM118 85L132 85L132 98Q132 105 145 108L145 110L104 110L104 108Q118 105 118 98L118 85Z"/>
	<path fill="#FF4D17" transform="matrix(0.63 0 0 0.63 2 5)" d="M63 74L72 74L72 83L63 83L63 74Z"/>
	<path fill="#171717" transform="translate(114 54)" d="M11.128906 -30.84082Q13.459961 -30.84082 15.243164 -29.691406Q17.026367 -28.552734 18.014648 -26.479492Q19.00293 -24.416992 19.00293 -21.785156Q19.00293 -17.821289 16.908203 -15.393555Q14.824219 -12.976562 11.397461 -12.976562L7.6591797 -12.976562Q7.4335938 -12.976562 7.4335938 -12.761719L7.4335938 -0.52636719Q7.4335938 -0.31152344 7.2832031 -0.15039062Q7.1328125 0 6.9072266 0L2.8574219 0Q2.6425781 0 2.4814453 -0.15039062Q2.3310547 -0.31152344 2.3310547 -0.52636719L2.3310547 -30.314453Q2.3310547 -30.540039 2.4814453 -30.69043Q2.6425781 -30.84082 2.8574219 -30.84082L11.128906 -30.84082ZM10.291016 -16.983398Q11.923828 -16.983398 12.912109 -18.240234Q13.900391 -19.49707 13.900391 -21.645508Q13.900391 -23.847656 12.912109 -25.147461Q11.923828 -26.447266 10.291016 -26.447266L7.6591797 -26.447266Q7.4335938 -26.447266 7.4335938 -26.22168L7.4335938 -17.208984Q7.4335938 -16.983398 7.6591797 -16.983398L10.291016 -16.983398Z"/>
	<path fill="#171717" transform="translate(140.27 54)" d="M14.566406 0Q14.125977 0 13.99707 -0.44042969L10.248047 -13.073242Q10.162109 -13.245117 10.033203 -13.245117L7.7021484 -13.245117Q7.4765625 -13.245117 7.4765625 -13.019531L7.4765625 -0.52636719Q7.4765625 -0.31152344 7.3261719 -0.15039062Q7.1757812 0 6.9501953 0L2.9003906 0Q2.6855469 0 2.5244141 -0.15039062Q2.3740234 -0.31152344 2.3740234 -0.52636719L2.3740234 -30.271484Q2.3740234 -30.49707 2.5244141 -30.647461Q2.6855469 -30.797852 2.9003906 -30.797852L11.171875 -30.797852Q13.50293 -30.797852 15.286133 -29.669922Q17.069336 -28.552734 18.057617 -26.500977Q19.056641 -24.459961 19.056641 -21.828125Q19.056641 -19.099609 17.993164 -17.112305Q16.94043 -15.135742 15.049805 -14.125977Q14.867188 -14.083008 14.920898 -13.857422L19.228516 -0.61230469Q19.271484 -0.52636719 19.271484 -0.39746094Q19.271484 0 18.788086 0L14.566406 0ZM7.7021484 -26.404297Q7.4765625 -26.404297 7.4765625 -26.178711L7.4765625 -17.423828Q7.4765625 -17.208984 7.7021484 -17.208984L10.387695 -17.208984Q11.966797 -17.208984 12.955078 -18.433594Q13.943359 -19.668945 13.943359 -21.785156Q13.943359 -23.890625 12.955078 -25.147461Q11.966797 -26.404297 10.387695 -26.404297L7.7021484 -26.404297Z"/>
	<path fill="#171717" transform="translate(166.71 54)" d="M10.248047 0.35449219Q6.4667969 0.35449219 4.1572266 -1.9335938Q1.8476562 -4.2216797 1.8476562 -8.0029297L1.8476562 -22.794922Q1.8476562 -26.576172 4.1572266 -28.864258Q6.4667969 -31.152344 10.248047 -31.152344Q14.040039 -31.152344 16.371094 -28.864258Q18.702148 -26.576172 18.702148 -22.794922L18.702148 -8.0029297Q18.702148 -4.2216797 16.371094 -1.9335938Q14.040039 0.35449219 10.248047 0.35449219ZM10.248047 -4.0498047Q11.751953 -4.0498047 12.675781 -5.0810547Q13.599609 -6.1123047 13.599609 -7.7880859L13.599609 -23.009766Q13.599609 -24.685547 12.675781 -25.716797Q11.751953 -26.748047 10.248047 -26.748047Q8.7548828 -26.748047 7.8525391 -25.716797Q6.9501953 -24.685547 6.9501953 -23.009766L6.9501953 -7.7880859Q6.9501953 -6.1123047 7.8525391 -5.0810547Q8.7548828 -4.0498047 10.248047 -4.0498047Z"/>
	<path fill="#171717" transform="translate(193.42 54)" d="M18.175781 -30.797852Q18.390625 -30.797852 18.541016 -30.647461Q18.702148 -30.49707 18.702148 -30.271484L18.702148 -26.930664Q18.702148 -26.705078 18.541016 -26.554688Q18.390625 -26.404297 18.175781 -26.404297L12.579102 -26.404297Q12.364258 -26.404297 12.364258 -26.178711L12.364258 -0.52636719Q12.364258 -0.31152344 12.203125 -0.15039062Q12.052734 0 11.837891 0L7.7880859 0Q7.5732422 0 7.4121094 -0.15039062Q7.2617188 -0.31152344 7.2617188 -0.52636719L7.2617188 -26.178711Q7.2617188 -26.404297 7.0361328 -26.404297L1.7617188 -26.404297Q1.5361328 -26.404297 1.3857422 -26.554688Q1.2353516 -26.705078 1.2353516 -26.930664L1.2353516 -30.271484Q1.2353516 -30.49707 1.3857422 -30.647461Q1.5361328 -30.797852 1.7617188 -30.797852L18.175781 -30.797852Z"/>
	<path fill="#171717" transform="translate(219.47 54)" d="M10.248047 0.35449219Q6.4667969 0.35449219 4.1572266 -1.9335938Q1.8476562 -4.2216797 1.8476562 -8.0029297L1.8476562 -22.794922Q1.8476562 -26.576172 4.1572266 -28.864258Q6.4667969 -31.152344 10.248047 -31.152344Q14.040039 -31.152344 16.371094 -28.864258Q18.702148 -26.576172 18.702148 -22.794922L18.702148 -8.0029297Q18.702148 -4.2216797 16.371094 -1.9335938Q14.040039 0.35449219 10.248047 0.35449219ZM10.248047 -4.0498047Q11.751953 -4.0498047 12.675781 -5.0810547Q13.599609 -6.1123047 13.599609 -7.7880859L13.599609 -23.009766Q13.599609 -24.685547 12.675781 -25.716797Q11.751953 -26.748047 10.248047 -26.748047Q8.7548828 -26.748047 7.8525391 -25.716797Q6.9501953 -24.685547 6.9501953 -23.009766L6.9501953 -7.7880859Q6.9501953 -6.1123047 7.8525391 -5.0810547Q8.7548828 -4.0498047 10.248047 -4.0498047Z"/>
	<path fill="#171717" transform="translate(246.18 54)" d="M10.119141 0.35449219Q6.3808594 0.35449219 4.1142578 -1.9121094Q1.8476562 -4.1787109 1.8476562 -7.9169922L1.8476562 -22.923828Q1.8476562 -26.705078 4.1142578 -28.928711Q6.3808594 -31.152344 10.119141 -31.152344Q13.900391 -31.152344 16.188477 -28.928711Q18.476562 -26.705078 18.476562 -22.923828L18.476562 -22.397461Q18.476562 -22.171875 18.326172 -22Q18.175781 -21.828125 17.950195 -21.828125L13.857422 -21.645508Q13.331055 -21.645508 13.331055 -22.171875L13.331055 -23.27832Q13.331055 -24.814453 12.450195 -25.78125Q11.569336 -26.748047 10.119141 -26.748047Q8.7119141 -26.748047 7.8310547 -25.78125Q6.9501953 -24.814453 6.9501953 -23.27832L6.9501953 -7.5195312Q6.9501953 -5.9833984 7.8310547 -5.0166016Q8.7119141 -4.0498047 10.119141 -4.0498047Q11.569336 -4.0498047 12.450195 -5.0166016Q13.331055 -5.9833984 13.331055 -7.5195312L13.331055 -8.6259766Q13.331055 -8.8408203 13.481445 -8.9912109Q13.642578 -9.1523438 13.857422 -9.1523438L17.950195 -8.9804688Q18.175781 -8.9804688 18.326172 -8.8193359Q18.476562 -8.6689453 18.476562 -8.4433594L18.476562 -7.9169922Q18.476562 -4.1787109 16.188477 -1.9121094Q13.900391 0.35449219 10.119141 0.35449219Z"/>
	<path fill="#171717" transform="translate(272.45 54)" d="M10.248047 0.35449219Q6.4667969 0.35449219 4.1572266 -1.9335938Q1.8476562 -4.2216797 1.8476562 -8.0029297L1.8476562 -22.794922Q1.8476562 -26.576172 4.1572266 -28.864258Q6.4667969 -31.152344 10.248047 -31.152344Q14.040039 -31.152344 16.371094 -28.864258Q18.702148 -26.576172 18.702148 -22.794922L18.702148 -8.0029297Q18.702148 -4.2216797 16.371094 -1.9335938Q14.040039 0.35449219 10.248047 0.35449219ZM10.248047 -4.0498047Q11.751953 -4.0498047 12.675781 -5.0810547Q13.599609 -6.1123047 13.599609 -7.7880859L13.599609 -23.009766Q13.599609 -24.685547 12.675781 -25.716797Q11.751953 -26.748047 10.248047 -26.748047Q8.7548828 -26.748047 7.8525391 -25.716797Q6.9501953 -24.685547 6.9501953 -23.009766L6.9501953 -7.7880859Q6.9501953 -6.1123047 7.8525391 -5.0810547Q8.7548828 -4.0498047 10.248047 -4.0498047Z"/>
	<path fill="#171717" transform="translate(299.16 54)" d="M2.9003906 0Q2.6855469 0 2.5244141 -0.15039062Q2.3740234 -0.31152344 2.3740234 -0.52636719L2.3740234 -30.271484Q2.3740234 -30.49707 2.5244141 -30.647461Q2.6855469 -30.797852 2.9003906 -30.797852L6.9501953 -30.797852Q7.1757812 -30.797852 7.3261719 -30.647461Q7.4765625 -30.49707 7.4765625 -30.271484L7.4765625 -4.6191406Q7.4765625 -4.4042969 7.7021484 -4.4042969L17.208984 -4.4042969Q17.423828 -4.4042969 17.574219 -4.2431641Q17.735352 -4.0927734 17.735352 -3.8671875L17.735352 -0.52636719Q17.735352 -0.31152344 17.574219 -0.15039062Q17.423828 0 17.208984 0L2.9003906 0Z"/>
	<path fill="#FF4D17" transform="matrix(0.42 0 0 0.42 330.18 7.8)" d="M59 0L63 0L10 72L0 72L59 0ZM49 17L63 0L63 72L49 72L49 17ZM128 0L132 0L79 72L69 72L128 0ZM118 17L132 0L132 72L118 72L118 17ZM0 74L60 74L60 83L0 83L0 74ZM75 74L132 74L145 72L145 83L75 83L75 74ZM49 85L63 85L63 98Q63 105 76 108L76 110L35 110L35 108Q49 105 49 98L49 85ZM118 85L132 85L132 98Q132 105 145 108L145 110L104 110L104 108Q118 105 118 98L118 85Z"/>
	<path fill="#FF4D17" transform="matrix(0.42 0 0 0.42 330.18 7.8)" d="M63 74L72 74L72 83L63 83L63 74Z"/>
</svg>
